<?xml version="1.0" encoding="UTF-8"?>
<svg id="Layer_2" data-name="Layer 2" xmlns="http://www.w3.org/2000/svg" viewBox="0 0 147.8 66.81">
  <defs>
    <style>
      .cls-1 {
        fill: #fff;
      }
    </style>
  </defs>
  <g id="Layer_1-2" data-name="Layer 1">
    <g>
      <path class="cls-1" d="M75.81,0h-24.09l-1.08,2.09c-.03.06-2.12,4.1-3.74,7.25,0,0,4.29-3.1,10.46-3.07,3.59.02,6.94.96,9.89,2.8.28.17.6.27.93.27h0c1.23,0,2.34-.82,2.64-2.02.61-2.38,2.02-5.01,4.99-7.32Z"/>
      <path class="cls-1" d="M35.98,0h11.08s-4.15,8.02-5.34,10.38c0,0-19.31,40.44-19.31,40.45-1.3,2.72-1.47,5.91-.58,8.78.45,1.45,1.31,2.68,2.44,3.71,1.16,1.06,2.77,1.85,4.32,2.04.53.07,1.06.08,1.59.05.37-.02.79-.1,1.01-.41.34-.48,0-1.16-.26-1.59-.31-.5-.73-.88-1.14-1.29l-.73-.73c-1.37-1.37-2-3.01-2-4.92s.73-3.64,2.1-5.01,3.01-2.1,4.92-2.1,3.64.73,5.01,2.1,2.1,3.1,2.1,5.01c0,3.46-1.73,6.29-5.28,8.47-3.55,2.1-7.01,2.46-10.29.91-2.64-1.28-4.46-3.37-5.28-6.38-.91-3.01-.64-5.92.73-8.84l2.82-5.92L4.46,4.01C3.46,1.91,1.91.73,0,.55v-.55h11.02c1.55,0,2.64.64,3.28,1.82l15.01,31.42,11.49-24.05c.36-.82.55-1.73.55-2.64,0-1.55-.55-2.92-1.55-4.1-1-1.18-2.28-1.82-3.83-1.91v-.55Z"/>
      <path class="cls-1" d="M72.84,28.01c0,4.75-1.49,8.83-4.55,12.15-2.99,3.33-6.65,5.02-10.93,5.02s-7.94-1.7-10.93-5.02c-3.05-3.33-4.55-7.4-4.55-12.15s1.49-8.83,4.55-12.15c2.99-3.33,6.65-5.02,10.93-5.02s7.94,1.7,10.93,5.02c3.05,3.33,4.55,7.4,4.55,12.15ZM57.36,11.24c-3.53,0-5.3,5.57-5.3,16.77s1.76,16.77,5.3,16.77,5.23-5.57,5.23-16.77-1.77-16.77-5.23-16.77Z"/>
      <path class="cls-1" d="M91.73,45.18c-4.54,0-8.46-1.07-11.76-3.3-3.3-2.23-4.99-4.99-4.99-8.28,0-1.87.71-3.47,2.05-4.81,1.34-1.34,2.94-2.05,4.81-2.05s3.56.71,4.9,2.05c1.34,1.34,2.05,2.94,2.05,4.81s-.71,3.38-2.05,4.81c-1.43,1.43-2.14,2.4-2.14,3.03,0,1.6,1.07,2.58,3.3,2.94,3.37.54,6.66.5,8.94-2.42,1.17-1.49,1.91-3.61,1.38-5.48s-1.93-3.58-3.36-4.95c-.89-.89-2.05-1.96-3.56-3.21l-2.05-1.6c-2.11-1.65-4.3-3.19-6.27-5.03-3.08-2.88-7.09-6.63-7.09-11.16,0-3.3.78-5.88,4.17-7.93,2.94-1.69,6.23-2.49,9.98-2.49,1.42,0,2.85.09,4.19.36.89.18,1.96.45,3.21.89,1.25.45,2.7.76,4.03.89,1.43.14,2.77-.09,4.16-.43v13.97h-.45c-.36-1.69-.71-3.12-1.16-4.45-.62-1.69-1.34-3.3-2.14-4.63-2.23-3.38-5.17-5.34-9-5.88-2.3-.32-4.82.23-6.05,2.38-1.88,3.28-.06,7.05,2.2,9.56.8.89,1.96,1.87,3.3,2.94l1.87,1.51,2.05,1.42c3.47,2.67,5.97,4.81,7.48,6.5,4.15,4.46,5.96,11.83.55,16.13-3.54,2.81-8.11,3.9-12.56,3.9Z"/>
      <path class="cls-1" d="M147.8,22.68c0,6.23-1.5,12.02-5.5,16.38-3.91,4.36-7.81,6.13-13.41,6.13s-9.5-1.77-13.41-6.13c-4-4.36-5.5-10.15-5.5-16.38s1.5-12.02,5.5-16.38c3.91-4.36,7.81-6.13,13.41-6.13s9.5,1.77,13.41,6.13c4,4.36,5.5,10.15,5.5,16.38ZM128.89.71c-4.63,0-7.85,7.29-7.85,21.97s3.22,21.97,7.85,21.97,7.76-7.29,7.76-21.97-3.22-21.97-7.76-21.97Z"/>
    </g>
  </g>
</svg>