<?xml version="1.0" encoding="UTF-8"?>
<svg id="Layer_2" data-name="Layer 2" xmlns="http://www.w3.org/2000/svg" viewBox="0 0 30.18 36.02">
  <defs>
    <style>
      .cls-1 {
        fill: #fff;
      }
    </style>
  </defs>
  <g id="Layer_1-2" data-name="Layer 1">
    <g id="uj1aMf">
      <path class="cls-1" d="M23.26,8.66c2.55-.15,4.99-.14,5.48,2.85.96,5.86.37,12.6,1.4,18.53.09,3.12.34,5.38-3.43,5.75-7.43.72-16-.58-23.55,0C-.34,35.24-.04,32.92.04,30.05c.16-5.36.62-12.99,1.35-18.26.44-3.22,2.75-3.3,5.53-3.13-.59-11.57,16.75-11.53,16.34,0ZM20.65,8.66c.33-8.05-11.45-8.04-11.11,0h11.11ZM6.92,11.27l-2.41.05-.49.49-1.35,20.54.49.82h23.85l.49-.82-1.35-20.54-.49-.49-2.41-.05v7.03c0,1-2.61,1.01-2.61-.33v-6.7h-11.11v6.7c0,1.51-2.61,1.28-2.61.33v-7.03Z"/>
    </g>
  </g>
</svg>